<svg width="125" height="29" viewBox="0 0 125 29" fill="none" xmlns="http://www.w3.org/2000/svg">
<path d="M105.276 14.4364C105.212 15.7196 104.955 16.6821 104.57 17.3878C103.865 18.7352 102.517 19.1844 101.876 17.1953C101.555 16.1046 101.555 14.3722 101.747 12.8965C102.004 11.3566 102.645 10.2659 103.736 10.33C104.891 10.4584 105.404 11.8058 105.276 14.4364ZM87.0542 22.2641C87.0542 24.3815 86.7334 26.2421 86.0276 26.7554C85.001 27.5254 83.6536 26.9479 83.9103 25.408C84.1669 24.0606 85.3218 22.6491 87.0542 20.9809C87.0542 20.9809 87.0542 21.3659 87.0542 22.2641ZM86.7975 14.3722C86.7334 15.5271 86.4125 16.6821 86.0917 17.3237C85.386 18.6711 83.9744 19.1202 83.3969 17.1312C83.012 15.7838 83.0762 14.0514 83.2686 12.9607C83.5253 11.5491 84.1669 10.2659 85.2576 10.2659C86.4126 10.33 86.9259 11.5491 86.7975 14.3722ZM76.2109 14.3722C76.1467 15.5913 75.89 16.6179 75.5051 17.3878C74.7993 18.7352 73.4519 19.1844 72.8103 17.1953C72.3611 15.7838 72.4895 13.8589 72.682 12.8324C72.9386 11.2925 73.6444 10.2017 74.671 10.33C75.8259 10.4584 76.3392 11.8058 76.2109 14.3722ZM124.653 15.7838C124.396 15.7838 124.268 16.0404 124.14 16.4896C123.819 18.0936 123.434 18.4144 122.985 18.4144C122.471 18.4144 122.022 17.6445 121.894 16.0404C121.83 14.8214 121.83 12.5115 121.958 10.2017C121.958 9.75259 121.83 9.30346 120.611 8.79017C120.097 8.59768 119.263 8.27687 118.878 9.2393C117.788 11.8699 117.338 14.0514 117.21 14.8855C117.21 14.9497 117.146 14.9497 117.146 14.8214C117.082 14.1156 116.954 12.8965 116.889 10.2659C116.889 9.75259 116.761 9.30346 116.184 8.98265C115.799 8.72601 114.708 8.34103 114.323 8.85433C114.002 9.2393 113.553 10.33 113.168 11.6133C112.847 12.6399 112.591 13.3456 112.591 13.3456C112.591 13.3456 112.591 10.5225 112.591 9.49594C112.591 9.11097 112.334 8.98265 112.206 8.91849C111.821 8.79017 111.115 8.66184 110.794 8.66184C110.409 8.66184 110.345 8.85433 110.345 9.17514C110.345 9.2393 110.281 12.8324 110.281 15.3988V15.7838C110.088 16.9387 109.382 18.5427 108.613 18.5427C107.843 18.5427 107.522 17.9011 107.522 14.8214C107.522 13.0248 107.586 12.2549 107.586 11.0358C107.586 10.33 107.65 9.75259 107.65 9.62427C107.65 9.2393 106.944 9.04681 106.623 8.98265C106.303 8.91849 106.046 8.85433 105.789 8.91849C105.469 8.91849 105.276 9.11098 105.276 9.43178V9.81675C104.891 9.17514 104.25 8.79017 103.8 8.66184C102.645 8.34104 101.491 8.59768 100.592 9.88091C99.8865 10.8433 99.4374 11.9983 99.3091 13.6023C99.1807 14.7572 99.2449 15.9763 99.4374 17.0029C99.1807 18.1578 98.6674 18.6069 98.1541 18.6069C97.3842 18.6069 96.8067 17.3237 96.8709 15.1422C96.9351 13.6665 97.1917 12.704 97.5125 11.2283C97.6408 10.5867 97.5125 10.2659 97.2559 9.94508C96.9992 9.68843 96.4859 9.49594 95.716 9.68843C95.1385 9.81675 94.3686 9.94508 93.6628 10.0734C93.6628 10.0734 93.727 9.88092 93.727 9.62427C93.9195 8.02023 92.1871 8.14855 91.6097 8.66184C91.2889 8.98265 91.0322 9.30346 90.968 9.94508C90.8397 10.9717 91.6738 11.485 91.6738 11.485C91.4172 12.7682 90.7114 14.3722 90.0056 15.5913C89.6207 16.2329 89.364 16.6821 88.979 17.1953C88.979 17.0029 88.979 16.8104 88.979 16.6179C88.979 13.9873 88.979 11.8699 89.0432 11.1C89.0432 10.3942 89.1073 9.81675 89.1073 9.68843C89.1073 9.43178 88.9149 9.30346 88.5941 9.17514C88.2732 9.04681 87.8883 8.98265 87.5674 8.91849C87.1183 8.85433 86.7975 9.11098 86.7975 9.43178V9.81675C86.4126 9.17514 85.7709 8.79017 85.3218 8.66184C84.1669 8.34104 83.012 8.59768 82.1137 9.88091C81.4079 10.8433 80.9588 12.2549 80.8305 13.6023C80.7021 14.8214 80.7022 15.9121 80.8947 16.8104C80.7022 17.7086 80.1889 18.6069 79.6114 18.6069C78.8415 18.6069 78.4565 17.9653 78.4565 14.8855C78.4565 13.089 78.5207 12.3191 78.5207 11.1C78.5207 10.3942 78.5848 9.81675 78.5848 9.68843C78.5848 9.30346 77.879 9.11097 77.5582 9.04681C77.2374 8.98265 76.9166 8.91849 76.7241 8.98265C76.4033 8.98265 76.2109 9.2393 76.2109 9.43178V9.81675C75.8259 9.17514 75.1842 8.79017 74.7351 8.66184C73.5802 8.34104 72.4253 8.66184 71.527 9.88091C70.9496 10.715 70.4363 11.6133 70.2438 13.6023C70.1796 14.1797 70.1155 14.693 70.1155 15.2063C69.8588 16.6179 68.8322 18.2861 67.9981 18.2861C67.4848 18.2861 67.0357 17.3237 67.0357 15.2705C67.0357 12.5757 67.2282 8.66184 67.2282 8.27687C67.2282 8.27687 68.319 8.27687 68.5115 8.27687C69.0247 8.27687 69.538 8.27687 70.2438 8.27687C70.6288 8.27687 70.9496 6.99364 70.5646 6.80115C70.3721 6.73699 69.2172 6.67283 68.7681 6.67283C68.3831 6.67283 67.2924 6.60867 67.2924 6.60867C67.2924 6.60867 67.4207 4.0422 67.4207 3.78555C67.4207 3.52891 67.164 3.46475 66.9716 3.40058C66.5866 3.2081 66.2016 3.14394 65.7525 3.07978C65.175 2.95145 64.8542 3.07978 64.8542 3.59307C64.7901 4.36301 64.7259 6.60867 64.7259 6.60867C64.2768 6.60867 62.801 6.54451 62.3519 6.54451C61.9669 6.54451 61.5178 8.27687 62.0953 8.34103C62.7369 8.34103 63.8918 8.4052 64.5976 8.4052C64.5976 8.4052 64.5334 12.3191 64.5334 13.5381V13.9231C64.1484 16.1046 62.6727 17.2595 62.6727 17.2595C62.9935 15.848 62.3519 14.7572 61.197 13.8589C60.7479 13.5381 59.9138 12.8965 59.0155 12.1907C59.0155 12.1907 59.5288 11.6774 60.0421 10.5867C60.3629 9.81675 60.4271 8.98265 59.5288 8.79017C58.1173 8.46936 57.0265 9.49595 56.6415 10.5867C56.3849 11.4208 56.5132 12.0624 57.0265 12.704C57.0907 12.7682 57.0907 12.7682 57.1548 12.8324C56.834 13.4098 56.3849 14.2439 56.0641 14.8855C55.0375 16.6179 54.2676 18.0294 53.7543 18.0294C53.3051 18.0294 53.3051 16.6179 53.3051 15.3347C53.3051 14.1797 53.3693 12.5115 53.4335 10.7792C53.4335 10.2017 53.1768 9.88091 52.6635 9.56011C52.3427 9.36762 51.7652 9.04681 51.3803 9.04681C50.867 9.04681 49.2629 9.11097 47.7872 13.4098C47.5947 13.9231 47.2098 14.9497 47.2098 14.9497L47.2739 9.75259C47.2739 9.62427 47.2098 9.49595 47.0814 9.43178C46.8248 9.30346 46.1832 9.04681 45.5415 9.04681C45.2849 9.04681 45.0924 9.17514 45.0924 9.43178L45.0282 17.5162C45.0282 18.1578 45.0283 18.8636 45.0924 19.1844C45.1566 19.5052 45.2849 19.7618 45.3491 19.8901C45.4774 20.0185 45.6057 20.1468 45.8623 20.2109C46.0548 20.2751 47.2739 20.4034 47.3381 19.9543C47.4023 19.441 47.4022 18.7994 48.0439 16.6179C49.0063 13.2173 50.2895 11.5491 50.867 10.9717C50.9953 10.8433 51.0595 10.8433 51.0595 11.0358C51.0595 11.8058 50.9311 13.6665 50.867 15.2063C50.6745 19.441 51.4444 20.2109 52.5993 20.2109C53.4334 20.2109 54.6525 19.3768 55.8716 17.2595C56.6415 15.9121 57.4115 14.6289 57.9889 13.7306C58.3739 14.1156 58.823 14.5006 59.208 14.8855C60.2346 15.848 60.5554 16.7462 60.2987 17.5803C60.1062 18.2219 59.5288 18.9277 58.3739 18.2861C58.0531 18.0936 57.9248 17.9653 57.604 17.7086C57.4115 17.5803 57.1548 17.5803 57.0265 17.7086C56.5774 18.0294 56.3849 18.4144 56.1924 18.9277C56.0641 19.441 56.5774 19.6977 57.0265 19.8901C57.4756 20.0826 58.3739 20.2751 59.0155 20.2751C61.3253 20.3393 63.186 19.1844 64.4692 16.0404C64.7259 18.7352 65.6883 20.2109 67.4207 20.2109C68.5756 20.2109 69.7305 18.7352 70.2438 17.2595C70.3721 17.837 70.6288 18.3503 70.8854 18.7994C72.2328 20.9167 74.7993 20.4676 76.0825 18.6711C76.4675 18.0936 76.5317 17.9011 76.5317 17.9011C76.7241 19.5693 78.0715 20.1468 78.8415 20.1468C79.7397 20.1468 80.5738 19.7618 81.2155 18.3503C81.2796 18.4786 81.3438 18.6711 81.4721 18.7994C82.8195 20.9167 85.3218 20.4676 86.6692 18.6711C86.7334 18.6069 86.7975 18.4786 86.7975 18.4144L86.8617 19.5052C86.8617 19.5052 86.1559 20.1468 85.6426 20.5959C83.6536 22.3924 82.1779 23.804 82.0496 25.408C81.9212 27.4612 83.5894 28.2312 84.8085 28.2953C86.1559 28.4236 87.3108 27.6537 88.0166 26.6271C88.6582 25.7288 89.0432 23.7398 88.979 21.815C88.979 21.045 88.979 20.0826 88.9149 18.9919C89.6206 18.1578 90.3906 17.1312 91.0963 15.9763C91.8663 14.693 92.7004 12.8965 93.1495 11.5491C93.1495 11.5491 93.8553 11.5491 94.6894 11.485C94.9461 11.485 95.0102 11.5491 94.946 11.6774C94.8819 11.8699 93.9836 15.5271 94.8177 17.9011C95.3952 19.5693 96.7426 20.0826 97.5125 20.0826C98.4108 20.0826 99.309 19.3768 99.7582 18.3503C99.8223 18.4786 99.8865 18.5427 99.9507 18.6711C101.298 20.7884 103.8 20.3393 105.148 18.5427C105.469 18.1578 105.597 17.7728 105.597 17.7728C105.854 19.5052 107.201 20.0185 107.971 20.0185C108.805 20.0185 109.511 19.6977 110.152 18.2219C110.152 18.8636 110.217 19.3768 110.281 19.5693C110.345 19.6977 110.537 19.826 110.73 19.8901C111.5 20.1468 112.206 20.0185 112.526 19.9543C112.719 19.8901 112.847 19.7618 112.911 19.3768C112.975 18.3503 112.911 16.5537 113.232 15.2705C113.745 13.089 114.259 12.2549 114.515 11.8058C114.644 11.5491 114.772 11.5491 114.772 11.8058C114.772 12.3191 114.836 13.7948 115.029 15.7838C115.157 17.2595 115.349 18.0936 115.542 18.4144C115.991 19.1844 116.504 19.2485 116.954 19.2485C117.21 19.2485 117.852 19.1844 117.788 18.6711C117.788 18.4144 117.788 16.9387 118.301 14.7572C118.622 13.3456 119.199 12.0624 119.456 11.6133C119.52 11.4208 119.584 11.5491 119.584 11.6133C119.52 12.5757 119.456 15.7838 119.841 17.5162C120.354 19.8901 121.958 20.1468 122.471 20.1468C123.626 20.1468 124.589 19.2485 124.91 16.9387C125.102 16.2329 124.974 15.7838 124.653 15.7838ZM40.6011 3.01561C38.8046 3.78556 36.7514 5.90289 36.1098 8.66184C35.2757 12.0624 38.6762 13.5381 38.9329 13.089C39.2537 12.5115 38.3554 12.3191 38.1629 10.5867C37.9063 8.27687 38.9971 5.71041 40.3445 4.61966C40.6011 4.42717 40.6011 4.68382 40.6011 5.26127C40.6011 6.2237 40.5369 14.8855 40.5369 16.6821C40.5369 19.1202 40.4086 19.8901 40.2803 20.6601C40.0878 21.43 39.8312 21.9433 40.0236 22.1358C40.2803 22.3283 41.371 21.815 41.9485 20.9809C42.7184 19.9543 42.9751 18.7352 42.9751 17.3878C43.0392 15.7838 43.0393 13.1532 43.0393 11.7416C43.0393 10.3942 43.0393 6.41618 43.0393 4.0422C42.9751 3.27226 41.3711 2.69481 40.6011 3.01561Z" fill="black"/>
<path d="M21.3658 5.96701C21.3658 5.1329 20.66 4.42712 19.8259 4.42712C18.9918 4.42712 18.2861 5.1329 18.2861 5.96701C18.2861 6.80111 18.9918 7.50689 19.8259 7.50689C20.66 7.50689 21.3658 6.86527 21.3658 5.96701Z" fill="url(#paint0_linear)"/>
<path d="M25.7288 7.57108C25.6647 6.15952 25.4722 5.26126 25.1514 4.42716C24.8306 3.59305 24.3814 2.82311 23.6756 2.11734C22.9699 1.41156 22.1999 0.962425 21.3658 0.641617C20.5317 0.320808 19.5693 0.128322 18.2219 0.0641607C16.8103 -9.79986e-07 16.4254 0 12.8965 0C9.36759 0 8.91847 -9.79986e-07 7.57107 0.0641607C6.15951 0.128322 5.26125 0.320808 4.42715 0.641617C3.59305 0.962425 2.82311 1.41156 2.11733 2.11734C1.41155 2.82311 0.962425 3.59305 0.641617 4.42716C0.320808 5.26126 0.128308 6.22368 0.064146 7.57108C-1.56654e-05 8.98264 0 9.36761 0 12.8965C0 16.4254 -1.56654e-05 16.8745 0.064146 18.2219C0.128308 19.6335 0.320808 20.5317 0.641617 21.3658C0.962425 22.1999 1.41155 22.9699 2.11733 23.6757C2.82311 24.3814 3.59305 24.8306 4.42715 25.1514C5.26125 25.4722 6.22368 25.6647 7.57107 25.7288C8.98263 25.793 9.43175 25.793 12.8965 25.793C16.4254 25.793 16.8745 25.793 18.2219 25.7288C19.6335 25.6647 20.5317 25.4722 21.3658 25.1514C22.1999 24.8306 22.9699 24.3814 23.6756 23.6757C24.3814 22.9699 24.8306 22.1999 25.1514 21.3658C25.4722 20.5317 25.6647 19.5693 25.7288 18.2219C25.793 16.8104 25.793 16.4254 25.793 12.8965C25.8572 9.36761 25.793 8.91847 25.7288 7.57108ZM23.419 18.1578C23.3549 19.441 23.1624 20.0826 22.9699 20.5959C22.7132 21.1734 22.4566 21.6225 22.0075 22.0716C21.5583 22.5208 21.1092 22.7774 20.5317 23.034C20.0826 23.2265 19.3768 23.419 18.0936 23.4832C16.7462 23.5473 16.2971 23.5473 12.8323 23.5473C9.36761 23.5473 8.98263 23.5473 7.57107 23.4832C6.28784 23.419 5.64623 23.2265 5.13294 23.034C4.55548 22.7774 4.10634 22.5208 3.6572 22.0716C3.20807 21.6225 2.88726 21.1734 2.69478 20.5959C2.50229 20.1468 2.30982 19.441 2.24566 18.1578C2.1815 16.8104 2.18149 16.3612 2.18149 12.8965C2.18149 9.43177 2.1815 9.0468 2.24566 7.63524C2.30982 6.35201 2.50229 5.71039 2.69478 5.1971C2.95143 4.61964 3.20807 4.17051 3.6572 3.72138C4.10634 3.27225 4.55548 3.0156 5.13294 2.75895C5.58207 2.56647 6.28784 2.37398 7.57107 2.30982C8.91847 2.24566 9.36761 2.24566 12.8323 2.24566C16.2971 2.24566 16.682 2.24566 18.0936 2.30982C19.3768 2.37398 20.0184 2.56647 20.5317 2.75895C21.1092 3.0156 21.5583 3.27225 22.0075 3.72138C22.4566 4.17051 22.7774 4.61964 22.9699 5.1971C23.1624 5.64623 23.3549 6.35201 23.419 7.63524C23.4832 8.98264 23.4832 9.43177 23.4832 12.8965C23.4832 16.3612 23.4832 16.8104 23.419 18.1578Z" fill="url(#paint1_linear)"/>
<path d="M12.8323 6.22363C9.17513 6.22363 6.15952 9.23923 6.15952 12.8964C6.15952 16.5537 9.11097 19.5693 12.8323 19.5693C16.4896 19.5693 19.5051 16.5537 19.5051 12.8964C19.5051 9.23923 16.5537 6.22363 12.8323 6.22363ZM12.8323 17.2594C10.4584 17.2594 8.53351 15.3346 8.53351 12.9606C8.53351 10.5866 10.4584 8.66178 12.8323 8.66178C15.2063 8.66178 17.1312 10.5866 17.1312 12.9606C17.1954 15.3346 15.2705 17.2594 12.8323 17.2594Z" fill="url(#paint2_linear)"/>
<defs>
<linearGradient id="paint0_linear" x1="0.105967" y1="25.6637" x2="23.6941" y2="2.07561" gradientUnits="userSpaceOnUse">
<stop offset="0.05" stop-color="#FFD521"/>
<stop offset="0.5011" stop-color="#F50000"/>
<stop offset="0.95" stop-color="#B900B4"/>
</linearGradient>
<linearGradient id="paint1_linear" x1="0.105866" y1="25.6636" x2="23.694" y2="2.0755" gradientUnits="userSpaceOnUse">
<stop offset="0.05" stop-color="#FFD521"/>
<stop offset="0.5011" stop-color="#F50000"/>
<stop offset="0.95" stop-color="#B900B4"/>
</linearGradient>
<linearGradient id="paint2_linear" x1="0.105927" y1="25.6637" x2="23.6941" y2="2.07559" gradientUnits="userSpaceOnUse">
<stop offset="0.05" stop-color="#FFD521"/>
<stop offset="0.5011" stop-color="#F50000"/>
<stop offset="0.95" stop-color="#B900B4"/>
</linearGradient>
</defs>
</svg>
